# xmcd CD database file
#
# Track frame offsets:
#	150
#	12281
#	29410
#	40456
#	60712
#	75986
#	92589
#	105102
#	114148
#	128255
#	154818
#	169974
#	184997
#	202045
#	211853
#	239257
#	255012
#	270287
#	311684
#	324568
#
# Disc length: 4619 seconds
#
# Revision: 0
# Processed by: cddbd v1.5.2PL0 Copyright (c) Steve Scherf et al.
# Submitted via: CDex 1.70beta2
#
DISCID=f4120914
DTITLE=Various Artist - Electric Blues Vol3 1960-1969 CD3
DYEAR=2011
DGENRE=Blues
TTITLE0=Ronny Hawkins - Who Do You Love
TTITLE1=Lonnie Mack - Baby What's Wrong
TTITLE2=Johnny Winter - Gangster Of Love
TTITLE3=The Animals - The House Of The Rising Sun
TTITLE4=Manfred Mann - Bring It To Jerome
TTITLE5=Michael Bloomfield - Going Down Slow
TTITLE6=The Pretty Things - Judgement Day
TTITLE7=The Yardbirds - I Ain't Got You
TTITLE8=Paul Butterfield Blues Band - Born In Chicago
TTITLE9=John Mayall's Blues Brakers - Have You Heard
TTITLE10=John Hammond - I Can Tell You
TTITLE11=Charley Musselwhite's South Side Band - Baby Will You Please Help Me
TTITLE12=The Spencer Davies Group - Stevie's Blues
TTITLE13=Ten Years After - I Want To Know
TTITLE14=Savoy Brown - Shake 'Em On Down
TTITLE15=Taj Mahal - She Caught The Cat
TTITLE16=Canned Heat - On The Road Again
TTITLE17=Big Brother and The Holding Company - Ball And Chain
TTITLE18=Fleetwood Mac - Black Magic Woman
TTITLE19=The Jeff Beck Group - I Ain't Superstitious
EXTD=YEAR: 2011
EXTT0=
EXTT1=
EXTT2=
EXTT3=
EXTT4=
EXTT5=
EXTT6=
EXTT7=
EXTT8=
EXTT9=
EXTT10=
EXTT11=
EXTT12=
EXTT13=
EXTT14=
EXTT15=
EXTT16=
EXTT17=
EXTT18=
EXTT19=
PLAYORDER=
